<?xml version="1.0" standalone="no"?>
<svg xmlns="http://www.w3.org/2000/svg" viewBox="0 0 339.12094386753176 127.74574521232306" width="339.12094386753176" height="127.74574521232306"><rect fill="#28a745" width="339.12094386753176" height="127.74574521232306" x="0" y="0"></rect><g fill="white" color="white" transform="translate(235.12 12) scale(1.9574669)"><svg width="47.0" height="53.0" x="0.0" y="0.0" viewBox="0 0 47 53"><path fill="currentColor" fill-rule="nonzero" d="M46.71 45.21v-.02c0-.08-.01-.16-.03-.24-.01-.03-.02-.06-.03-.1-.02-.05-.03-.1-.05-.15-.01-.02-.01-.03-.02-.05L24.72.94A1.25 1.25 0 0 0 23.6.25c-.48 0-.91.27-1.12.69L.63 44.65c-.01.02-.01.03-.02.05-.02.05-.04.1-.06.16l-.03.09c-.01.08-.02.16-.02.25v.01c.01 4.92 11.63 7.49 23.11 7.49 11.48 0 23.1-2.57 23.1-7.49zM23.61 4.29L42.16 41.4l-.18-.09a9.57 9.57 0 0 0-.56-.26c-.12-.05-.24-.11-.36-.16-.21-.09-.43-.19-.66-.28-.1-.04-.2-.08-.3-.13-.32-.13-.66-.25-.99-.37-.09-.03-.18-.06-.26-.09-.26-.09-.52-.18-.79-.26-.14-.04-.28-.08-.41-.13-.23-.07-.46-.14-.7-.2l-.45-.12a72.765 72.765 0 0 0-1.17-.29l-.79-.18-.41-.09c-.41-.08-.82-.16-1.24-.24-2.99-.53-6.13-.79-9.27-.79-1.51 0-3.03.06-4.53.19-.06 0-.11.01-.17.01-.05 0-.09.01-.14.01-1.5.13-2.99.32-4.44.58-.42.07-.84.16-1.24.24-.13.03-.25.05-.37.08-.28.06-.56.12-.84.19-.14.03-.28.07-.42.1-.26.06-.51.13-.76.2-.14.04-.27.07-.41.11-.26.07-.51.15-.76.22-.12.04-.23.07-.35.11-.31.1-.61.2-.9.3-.05.02-.11.04-.16.05-.35.12-.69.25-1.02.38-.07.03-.15.06-.22.09-.25.1-.5.21-.74.31-.1.05-.21.09-.31.14-.21.09-.41.19-.61.29-.05.03-.11.05-.16.08L23.61 4.29zm0 45.91c-12.5 0-19.5-2.78-20.49-4.58.3-.26.62-.52.98-.77.04-.03.09-.06.14-.09.14-.1.28-.19.43-.28.07-.04.14-.09.22-.13.13-.08.26-.16.39-.23.08-.05.17-.1.26-.14l.39-.21c.09-.05.19-.1.29-.15.13-.07.26-.13.4-.19.1-.05.21-.1.32-.14.13-.06.27-.12.41-.18.11-.05.22-.09.34-.14.14-.06.28-.11.42-.17.12-.05.24-.09.36-.14.15-.05.29-.11.44-.16.12-.04.25-.09.37-.13.15-.05.31-.1.46-.15l.39-.12c.16-.05.32-.1.48-.14.13-.04.26-.08.39-.11.17-.05.34-.09.52-.14.13-.03.26-.07.39-.1.18-.05.37-.09.55-.13l.38-.09c.21-.05.42-.09.63-.13.11-.02.22-.05.34-.07.32-.07.65-.13.98-.19 5.7-1.01 11.98-1.01 17.67 0 .33.06.66.12.98.19.11.02.22.05.33.07.21.04.42.09.62.13l.39.09c.18.04.36.08.54.13.14.04.28.07.41.11.16.04.33.09.49.13l.42.12c.15.05.31.09.46.14.14.04.27.09.41.13.15.05.29.09.43.14.14.05.27.09.4.14.14.05.27.1.41.15l.39.15c.13.05.26.1.38.15.13.05.26.11.38.16s.24.11.36.16c.12.06.24.11.36.17.12.05.23.11.34.17.12.06.23.11.34.17.11.06.22.12.32.17.11.06.22.12.32.18.11.06.21.12.31.19.1.06.2.12.29.18.11.07.21.14.31.21.08.06.17.11.25.17.15.1.29.21.43.32a10.884 10.884 0 0 1 .55.46c-.98 1.75-7.97 4.52-20.47 4.52z"></path></svg></g><path fill="white" fill-rule="nonzero" d="M3.82 10.16Q3.32 9.96 3.18 9.76Q3.04 9.56 3.04 9.22Q3.04 8.88 3.28 8.72L3.28 8.72Q7.32 8.72 7.72 8.68L7.72 8.68Q7.92 4.32 9.44 2.16Q10.96 0 14.04 0L14.04 0Q16 0 17.14 1.16Q18.28 2.32 18.28 4.12L18.28 4.12Q18.28 6.68 16.56 8.08Q14.84 9.48 11.28 10.00L11.28 10.00L11.28 22.52Q11.28 25.24 10.68 27.40L10.68 27.40Q10.84 27.56 11.38 28.02Q11.92 28.48 12.12 28.66Q12.32 28.84 12.84 29.28Q13.36 29.72 13.62 29.90Q13.88 30.08 14.40 30.42Q14.92 30.76 15.28 30.92Q15.64 31.08 16.18 31.30Q16.72 31.52 17.20 31.64L17.20 31.64Q18.44 31.88 19.48 31.88L19.48 31.88Q23.44 31.88 25.46 30.02Q27.48 28.16 27.48 24.64L27.48 24.64Q27.52 24.40 27.90 24.40Q28.28 24.40 28.48 24.52L28.48 24.52Q29.08 24.96 29.08 26.48L29.08 26.48Q29.08 29.80 26.24 31.98Q23.40 34.16 19.44 34.16L19.44 34.16Q16.44 34.16 14.20 32.96Q11.96 31.76 9.80 29.68L9.80 29.68Q8 33.12 4.60 33.12L4.60 33.12Q2.36 33.12 1.18 31.94Q0 30.76 0 28.84Q0 26.92 1.24 25.68Q2.48 24.44 4.32 24.44Q6.16 24.44 7.60 25.16L7.60 25.16Q7.68 23.48 7.68 22.36L7.68 22.36L7.68 10.32Q6.88 10.36 5.60 10.36Q4.32 10.36 3.82 10.16ZM16.44 4.00L16.44 4.00Q16.44 3.04 15.74 2.36Q15.04 1.68 13.90 1.68Q12.76 1.68 12.08 3.14Q11.40 4.60 11.28 8.32L11.28 8.32Q16.44 7.36 16.44 4.00ZM1.80 28.80L1.80 28.80Q1.80 31.44 4.60 31.44L4.60 31.44Q6.84 31.44 7.40 27.40L7.40 27.40Q5.80 26.08 4.52 26.08Q3.24 26.08 2.52 26.80Q1.80 27.52 1.80 28.80ZM41.28 5.92Q42 5.92 42.44 6.34Q42.88 6.76 42.88 7.24Q42.88 7.72 42.64 7.80L42.64 7.80Q38.64 7.80 36.44 10.80Q34.24 13.80 34.24 19.34Q34.24 24.88 36.64 28.70Q39.04 32.52 43.32 32.52Q47.60 32.52 50.14 28.48Q52.68 24.44 52.68 18.30Q52.68 12.16 49.70 8.10Q46.72 4.04 41.92 4.04Q37.12 4.04 33.74 6.78Q30.36 9.52 30.20 13.32L30.20 13.32Q30.04 13.64 29.44 13.64L29.44 13.64Q28.40 13.56 28.40 12.28Q28.40 11.00 28.92 9.66Q29.44 8.32 30.60 6.96Q31.76 5.60 33.32 4.50Q34.88 3.40 37.20 2.72Q39.52 2.04 42.20 2.04L42.20 2.04Q48.64 2.04 52.50 6.66Q56.36 11.28 56.36 18.36Q56.36 25.44 52.82 29.78Q49.28 34.12 43.34 34.12Q37.40 34.12 33.98 30.00Q30.56 25.88 30.56 18.88L30.56 18.88Q30.56 15.60 31.62 13.00Q32.68 10.40 34.36 8.92L34.36 8.92Q37.76 5.92 41.28 5.92L41.28 5.92ZM60.60 10.76L60.60 10.76Q60.60 11.52 60.84 12.24L60.84 12.24Q60.60 12.72 59.76 12.72Q58.92 12.72 58.32 12.12Q57.72 11.52 57.72 10.52L57.72 10.52Q57.72 8.24 59.66 6.30Q61.60 4.36 64.42 3.34Q67.24 2.32 70.12 2.32L70.12 2.32Q83.56 2.32 83.56 11.96L83.56 11.96Q83.56 14.48 82.04 16.46Q80.52 18.44 78.50 19.36Q76.48 20.28 74.56 20.28L74.56 20.28Q76.80 20.28 78.54 21.28Q80.28 22.28 81.38 23.88Q82.48 25.48 83.42 27.42Q84.36 29.36 85.28 31.32Q86.20 33.28 87.28 34.88Q88.36 36.48 90.06 37.48Q91.76 38.48 93.96 38.48L93.96 38.48Q94.96 38.48 95.60 38.08L95.60 38.08Q96.20 38.12 96.20 38.76L96.20 38.76Q96.20 40.12 93.40 40.12Q90.60 40.12 88.40 39.08Q86.20 38.04 84.84 36.36Q83.48 34.68 82.38 32.66Q81.28 30.64 80.32 28.64Q79.36 26.64 78.30 24.96Q77.24 23.28 75.60 22.24Q73.96 21.20 71.84 21.20L71.84 21.20Q70.80 21.20 70.80 20.08L70.80 20.08Q70.80 19.60 71.12 19.36Q71.44 19.12 71.84 19.12L71.84 19.12Q75.56 19.12 77.72 16.94Q79.88 14.76 79.88 11.96L79.88 11.96Q79.88 8.04 77.24 6.16Q74.60 4.28 70.66 4.28Q66.72 4.28 63.66 6.14Q60.60 8.00 60.60 10.76ZM65.24 9.60Q65.24 8.40 65.84 7.78Q66.44 7.16 67.28 7.16Q68.12 7.16 68.92 7.72L68.92 7.72L68.92 25.36Q68.92 29.56 67.34 32.04Q65.76 34.52 62.58 34.52Q59.40 34.52 57.80 33.06Q56.20 31.60 56.20 29.20L56.20 29.20Q56.20 26.12 58.20 26.12L58.20 26.12Q58.68 26.12 59.04 26.36Q59.40 26.60 59.64 27.04L59.64 27.04Q59.32 27.88 59.32 29.52Q59.32 31.16 60.18 32.02Q61.04 32.88 62.36 32.88L62.36 32.88Q65.24 32.88 65.24 27.76L65.24 27.76L65.24 9.60ZM108.72 21.48L108.72 21.48Q109.48 21.48 109.48 22.80L109.48 22.80Q109.48 27.24 106.52 30.68L106.52 30.68Q105.08 32.36 102.72 33.40Q100.36 34.44 97.48 34.44L97.48 34.44Q92.28 34.44 88.78 32Q85.28 29.56 85.28 25.16L85.28 25.16Q85.28 23.20 85.88 21.68Q86.48 20.16 87.30 19.32Q88.12 18.48 89.16 17.92L89.16 17.92Q90.92 17 92.48 17L92.48 17Q90.32 16.68 88.76 15.08L88.76 15.08Q88.04 14.40 87.50 13.04Q86.96 11.68 86.96 9.92L86.96 9.92Q86.96 6.16 89.60 4.18Q92.24 2.20 96.62 2.20Q101 2.20 103.22 3.98Q105.44 5.76 105.44 8.24L105.44 8.24Q105.44 9.24 104.84 9.84Q104.24 10.44 103.64 10.44L103.64 10.44Q102.64 10.44 102.32 9.96L102.32 9.96Q102.56 9.36 102.56 8.48L102.56 8.48Q102.56 6.32 100.92 5.24Q99.28 4.16 96.64 4.16Q94 4.16 92.32 5.62Q90.64 7.08 90.64 9.92L90.64 9.92Q90.64 15.88 98.68 15.88L98.68 15.88Q99.12 15.88 99.50 16.14Q99.88 16.40 99.88 16.92L99.88 16.92Q99.88 17.96 98.68 17.96L98.68 17.96Q94.40 17.96 91.68 19.72Q88.96 21.48 88.96 25.14Q88.96 28.80 91.30 30.62Q93.64 32.44 97.74 32.44Q101.84 32.44 104.94 29.48Q108.04 26.52 108.04 21.76L108.04 21.76Q108.12 21.48 108.72 21.48ZM112.28 11.20L112.28 11.20Q112.28 11.92 112.60 12.64L112.60 12.64Q112.24 13.12 111.40 13.12Q110.56 13.12 109.98 12.52Q109.40 11.92 109.40 10.56L109.40 10.56Q109.40 7.40 111.32 5.42Q113.24 3.44 116.44 3.44L116.44 3.44Q121.72 3.44 122.72 9.20L122.72 9.20Q123.60 6.52 125.60 4.92Q127.60 3.32 130.28 3.32L130.28 3.32Q134.44 3.36 136.52 6.46Q138.60 9.56 138.60 14.76L138.60 14.76L138.60 26.08Q138.60 28.40 139.54 29.80Q140.48 31.20 142 31.20L142 31.20Q145.76 31.20 145.76 23.68L145.76 23.68Q145.80 23.44 146.18 23.44Q146.56 23.44 146.76 23.56L146.76 23.56Q147.36 24.00 147.36 25.52L147.36 25.52Q147.36 28.88 145.76 30.96Q144.16 33.04 141.52 33.04L141.52 33.04Q137.84 33.04 136.38 30.58Q134.92 28.12 134.92 23.68L134.92 23.68L134.92 14.76Q134.92 5.32 130.28 5.32L130.28 5.32Q128.48 5.32 127.14 6.22Q125.80 7.12 125.04 8.44Q124.28 9.76 123.84 11.60L123.84 11.60Q123.08 14.56 123.08 18.36L123.08 18.36L123.08 23.48Q123.08 28.44 121.50 31.34Q119.92 34.24 116.74 34.24Q113.56 34.24 111.96 32.78Q110.36 31.32 110.36 28.92L110.36 28.92Q110.36 25.84 112.36 25.84L112.36 25.84Q112.84 25.84 113.20 26.06Q113.56 26.28 113.80 26.76L113.80 26.76Q113.48 27.60 113.48 29.26Q113.48 30.92 114.34 31.76Q115.20 32.60 116.52 32.60L116.52 32.60Q119.36 32.60 119.36 25.88L119.36 25.88L119.36 10.40Q119.36 8.08 118.42 6.68Q117.48 5.28 115.86 5.28Q114.24 5.28 113.26 6.58Q112.28 7.88 112.28 11.20ZM150.92 8.48L150.92 8.48Q150.92 9.08 151.16 9.64L151.16 9.64Q150.76 10.28 149.76 10.28Q148.76 10.28 148.12 9.52Q147.48 8.76 147.48 7.32L147.48 7.32Q147.48 5.08 149.28 3.62Q151.08 2.16 153.98 2.16Q156.88 2.16 159.52 3.22Q162.16 4.28 164.54 5.46Q166.92 6.64 168.52 6.84L168.52 6.84Q171.52 3.76 175.12 3.76L175.12 3.76Q175.36 4.12 175.36 4.60L175.36 4.60Q175.36 5.88 173.74 7.04Q172.12 8.20 169.84 8.64L169.84 8.64Q167.72 10.88 164.18 17.88Q160.64 24.88 158.56 27.52L158.56 27.52Q163.28 30.00 165.52 30.72Q167.76 31.44 169.96 31.44L169.96 31.44Q173.32 31.44 174.72 30.26Q176.12 29.08 176.12 26.92L176.12 26.92Q176.12 25.80 175.58 24.96Q175.04 24.12 174.48 23.84L174.48 23.84L173.96 23.56Q173.64 23.32 173.64 22.64L173.64 22.64Q173.64 21.64 174.92 21.64Q176.20 21.64 177.14 23.02Q178.08 24.40 178.08 26.92L178.08 26.92Q178.08 30.64 175.64 32.46Q173.20 34.28 169.92 34.28L169.92 34.28Q165.88 34.28 162.44 32.60L162.44 32.60Q159.68 31.24 156.84 29.40L156.84 29.40Q154.04 32 150.84 32L150.84 32Q148.96 32 147.76 31.14Q146.56 30.28 146.56 28.56Q146.56 26.84 147.76 25.90Q148.96 24.96 151.24 24.96Q153.52 24.96 156.72 26.56L156.72 26.56Q158.52 24.28 161.70 17.86Q164.88 11.44 166.80 8.84L166.80 8.84Q165.44 8.64 161.30 6.72Q157.16 4.80 155.14 4.80Q153.12 4.80 152.02 5.84Q150.92 6.88 150.92 8.48ZM148.76 28.48L148.76 28.48Q148.76 30.16 150.92 30.16Q153.08 30.16 155.16 28.28L155.16 28.28Q152.60 26.76 151.34 26.76Q150.08 26.76 149.42 27.24Q148.76 27.72 148.76 28.48ZM193.04 5.92Q193.76 5.92 194.20 6.34Q194.64 6.76 194.64 7.24Q194.64 7.72 194.40 7.80L194.40 7.80Q190.40 7.80 188.20 10.80Q186 13.80 186 19.34Q186 24.88 188.40 28.70Q190.80 32.52 195.08 32.52Q199.36 32.52 201.90 28.48Q204.44 24.44 204.44 18.30Q204.44 12.16 201.46 8.10Q198.48 4.04 193.68 4.04Q188.88 4.04 185.50 6.78Q182.12 9.52 181.96 13.32L181.96 13.32Q181.80 13.64 181.20 13.64L181.20 13.64Q180.16 13.56 180.16 12.28Q180.16 11.00 180.68 9.66Q181.20 8.32 182.36 6.96Q183.52 5.60 185.08 4.50Q186.64 3.40 188.96 2.72Q191.28 2.04 193.96 2.04L193.96 2.04Q200.40 2.04 204.26 6.66Q208.12 11.28 208.12 18.36Q208.12 25.44 204.58 29.78Q201.04 34.12 195.10 34.12Q189.16 34.12 185.74 30.00Q182.32 25.88 182.32 18.88L182.32 18.88Q182.32 15.60 183.38 13.00Q184.44 10.40 186.12 8.92L186.12 8.92Q189.52 5.92 193.04 5.92L193.04 5.92Z" transform="translate(12 12) scale(1)"></path><path fill="white" fill-rule="nonzero" d="M10.40 1.64L10.40 4.36L11.60 4.32Q18.44 4.36 22.24 6.92Q26.04 9.48 26.04 14.20Q26.04 18.92 23 21.58Q19.96 24.24 14.96 24.24L14.96 24.24Q12.68 24.24 10.56 23.40L10.56 23.40L10.56 29.32Q10.56 34 9.40 36.26Q8.24 38.52 5.44 38.52L5.44 38.52Q3.92 38.52 3.08 37.24Q2.24 35.96 2.24 33.60L2.24 33.60Q2.24 29.24 6.80 24.80L6.80 24.80L6.80 7.52Q5.04 8.32 3.96 9.42Q2.88 10.52 2.88 11.52Q2.88 12.52 3.12 13.24L3.12 13.24Q2.88 13.72 2.04 13.72Q1.20 13.72 0.60 13.12Q0 12.52 0 11.52L0 11.52Q0 9.64 1.88 7.80Q3.76 5.96 6.80 5.04L6.80 5.04L6.80 3.52Q6.80 2.32 7.40 1.70Q8 1.08 8.88 1.08Q9.76 1.08 10.40 1.64L10.40 1.64ZM14.64 22.16Q18.44 22.16 20.32 20.14Q22.20 18.12 22.20 14.34Q22.20 10.56 19.46 8.42Q16.72 6.28 11.64 6.28L11.64 6.28Q11 6.28 10.52 6.40L10.52 6.40L10.52 21.28Q12.56 22.16 14.64 22.16L14.64 22.16ZM5.40 36.96L5.40 36.96Q6.24 36.96 6.52 35Q6.80 33.04 6.80 26.68L6.80 26.68Q3.96 30.16 3.96 33.56Q3.96 36.96 5.40 36.96ZM40.78 31.66Q41.16 32 41.16 32.52Q41.16 33.04 40.80 33.40L40.80 33.40L30.04 33.40Q28.60 33.40 28.60 32.24L28.60 32.24Q28.60 31.72 28.96 31.36L28.96 31.36L33.28 31.32L33.28 7.48L30.04 7.48Q28.60 7.48 28.60 6.32L28.60 6.32Q28.60 5.84 28.96 5.40L28.96 5.40L39.72 5.40Q40.40 5.40 40.78 5.74Q41.16 6.08 41.16 6.60Q41.16 7.12 40.80 7.48L40.80 7.48L36.88 7.48L36.88 31.32L39.72 31.32Q40.40 31.32 40.78 31.66ZM49.88 9.68L49.88 9.68Q49.88 10.28 50.12 10.84L50.12 10.84Q49.72 11.48 48.72 11.48Q47.72 11.48 47.08 10.72Q46.44 9.96 46.44 8.52L46.44 8.52Q46.44 6.28 48.24 4.82Q50.04 3.36 52.94 3.36Q55.84 3.36 58.48 4.42Q61.12 5.48 63.50 6.66Q65.88 7.84 67.48 8.04L67.48 8.04Q70.48 4.96 74.08 4.96L74.08 4.96Q74.32 5.32 74.32 5.80L74.32 5.80Q74.32 7.08 72.70 8.24Q71.08 9.40 68.80 9.84L68.80 9.84Q66.68 12.08 63.14 19.08Q59.60 26.08 57.52 28.72L57.52 28.72Q62.24 31.20 64.48 31.92Q66.72 32.64 68.92 32.64L68.92 32.64Q72.28 32.64 73.68 31.46Q75.08 30.28 75.08 28.12L75.08 28.12Q75.08 27 74.54 26.16Q74 25.32 73.44 25.04L73.44 25.04L72.92 24.76Q72.60 24.52 72.60 23.84L72.60 23.84Q72.60 22.84 73.88 22.84Q75.16 22.84 76.10 24.22Q77.04 25.60 77.04 28.12L77.04 28.12Q77.04 31.84 74.60 33.66Q72.16 35.48 68.88 35.48L68.88 35.48Q64.84 35.48 61.40 33.80L61.40 33.80Q58.64 32.44 55.80 30.60L55.80 30.60Q53 33.20 49.80 33.20L49.80 33.20Q47.92 33.20 46.72 32.34Q45.52 31.48 45.52 29.76Q45.52 28.04 46.72 27.10Q47.92 26.16 50.20 26.16Q52.48 26.16 55.68 27.76L55.68 27.76Q57.48 25.48 60.66 19.06Q63.84 12.64 65.76 10.04L65.76 10.04Q64.40 9.84 60.26 7.92Q56.12 6.00 54.10 6.00Q52.08 6.00 50.98 7.04Q49.88 8.08 49.88 9.68ZM47.72 29.68L47.72 29.68Q47.72 31.36 49.88 31.36Q52.04 31.36 54.12 29.48L54.12 29.48Q51.56 27.96 50.30 27.96Q49.04 27.96 48.38 28.44Q47.72 28.92 47.72 29.68ZM83.20 9.68L83.20 9.68Q83.20 10.28 83.44 10.84L83.44 10.84Q83.04 11.48 82.04 11.48Q81.04 11.48 80.40 10.72Q79.76 9.96 79.76 8.52L79.76 8.52Q79.76 6.28 81.56 4.82Q83.36 3.36 86.26 3.36Q89.16 3.36 91.80 4.42Q94.44 5.48 96.82 6.66Q99.20 7.84 100.80 8.04L100.80 8.04Q103.80 4.96 107.40 4.96L107.40 4.96Q107.64 5.32 107.64 5.80L107.64 5.80Q107.64 7.08 106.02 8.24Q104.40 9.40 102.12 9.84L102.12 9.84Q100 12.08 96.46 19.08Q92.92 26.08 90.84 28.72L90.84 28.72Q95.56 31.20 97.80 31.92Q100.04 32.64 102.24 32.64L102.24 32.64Q105.60 32.64 107 31.46Q108.40 30.28 108.40 28.12L108.40 28.12Q108.40 27 107.86 26.16Q107.32 25.32 106.76 25.04L106.76 25.04L106.24 24.76Q105.92 24.52 105.92 23.84L105.92 23.84Q105.92 22.84 107.20 22.84Q108.48 22.84 109.42 24.22Q110.36 25.60 110.36 28.12L110.36 28.12Q110.36 31.84 107.92 33.66Q105.48 35.48 102.20 35.48L102.20 35.48Q98.16 35.48 94.72 33.80L94.72 33.80Q91.96 32.44 89.12 30.60L89.12 30.60Q86.32 33.20 83.12 33.20L83.12 33.20Q81.24 33.20 80.04 32.34Q78.84 31.48 78.84 29.76Q78.84 28.04 80.04 27.10Q81.24 26.16 83.52 26.16Q85.80 26.16 89.00 27.76L89.00 27.76Q90.80 25.48 93.98 19.06Q97.16 12.64 99.08 10.04L99.08 10.04Q97.72 9.84 93.58 7.92Q89.44 6.00 87.42 6.00Q85.40 6.00 84.30 7.04Q83.20 8.08 83.20 9.68ZM81.04 29.68L81.04 29.68Q81.04 31.36 83.20 31.36Q85.36 31.36 87.44 29.48L87.44 29.48Q84.88 27.96 83.62 27.96Q82.36 27.96 81.70 28.44Q81.04 28.92 81.04 29.68ZM143.74 24.58Q144.12 24.92 144.12 25.44Q144.12 25.96 143.76 26.32L143.76 26.32L138.08 26.32L140.36 33.92Q140.44 34.20 140.44 34.64Q140.44 35.08 139.88 35.72Q139.32 36.36 138.72 36.36L138.72 36.36Q137.60 36.36 136.96 35.80L136.96 35.80L134.12 26.32L123.92 26.32L121.92 31.76Q120.88 34.52 118.92 36.52Q116.96 38.52 113.84 38.52L113.84 38.52Q111.48 38.52 110.14 37.28Q108.80 36.04 108.80 33.68Q108.80 31.32 109.94 29.42Q111.08 27.52 112.96 26.44L112.96 26.44Q116.72 24.28 121.36 24.28L121.36 24.28L127.20 7.80Q127.60 6.64 128.04 6.08L128.04 6.08Q126.80 1.92 126.80 1.50Q126.80 1.08 127.38 0.54Q127.96 0 128.56 0L128.56 0Q129.72 0 130.36 0.56L130.36 0.56L137.44 24.28L142.68 24.24Q143.36 24.24 143.74 24.58ZM113.84 36.84L113.84 36.84Q116.84 36.84 119.04 30.80L119.04 30.80L120.60 26.36Q116.20 26.36 113.62 28.44Q111.04 30.52 111.04 33.92L111.04 33.92Q111.04 35.32 111.82 36.08Q112.60 36.84 113.84 36.84ZM133.48 24.28L129.56 9.16L124.68 24.28L133.48 24.28Z" transform="translate(12 60.121) scale(1.445)"></path></svg>